# xmcd
#
# Track frame offsets: 
#        150
#        13975
#        29835
#        45840
#        63547
#        77686
#        95696
#        119736
#        134060
#        146826
#        162338
#        181563
#
# Disc length: 2583 seconds
#
# Revision: 7
# Processed by: cddbd v1.5.2PL0 Copyright (c) Steve Scherf et al.
# Submitted via: ExactAudioCopy v1.3
#
DISCID=ae0a150c
DTITLE=Браво - Браво - The Best
DYEAR=1998
DGENRE=Rock and Roll
TTITLE0=Дорога в облака
TTITLE1=Ветер знает
TTITLE2=Стильный оранжевый галстук
TTITLE3=Старый отель
TTITLE4=Этот город
TTITLE5=Автомобиль
TTITLE6=Я - то, что надо
TTITLE7=Если бы на Марсе
TTITLE8=Кошки
TTITLE9=Вася
TTITLE10=Серенада 2000
TTITLE11=Любите, девушки
EXTD=
EXTT0=
EXTT1=
EXTT2=
EXTT3=
EXTT4=
EXTT5=
EXTT6=
EXTT7=
EXTT8=
EXTT9=
EXTT10=
EXTT11=
PLAYORDER=
